<svg xmlns="http://www.w3.org/2000/svg" xmlns:xlink="http://www.w3.org/1999/xlink" width="500" zoomAndPan="magnify" viewBox="0 0 375 374.999991" height="500" preserveAspectRatio="xMidYMid meet" version="1.0"><defs><clipPath id="8d91ad0e84"><path d="M 87.5 37.5 L 287.75 37.5 L 287.75 337.5 L 87.5 337.5 Z M 87.5 37.5 " clip-rule="nonzero"/></clipPath></defs><path fill="#ce1628" d="M 200.21875 313.757812 L 201.820312 311.269531 L 204.878906 321.660156 L 212.109375 321.660156 L 206.328125 304.089844 L 212.109375 292.375 L 204.753906 292.375 L 200.257812 304.320312 L 200.257812 292.375 L 193.757812 292.375 L 193.757812 321.660156 L 200.21875 321.660156 Z M 200.21875 313.757812 " fill-opacity="1" fill-rule="nonzero"/><path fill="#ce1628" d="M 174.816406 303.441406 L 171.011719 303.441406 L 171.011719 292.457031 L 164.074219 292.457031 L 164.074219 321.96875 L 171.011719 321.96875 L 171.011719 309.335938 L 174.816406 309.335938 L 174.816406 321.96875 L 181.542969 321.96875 L 181.542969 292.457031 L 174.816406 292.457031 Z M 174.816406 303.441406 " fill-opacity="1" fill-rule="nonzero"/><path fill="#ce1628" d="M 261.199219 316.382812 L 266.15625 316.382812 L 266.683594 321.96875 L 274.132812 321.96875 L 268.390625 292.308594 L 259.371094 292.308594 L 253.953125 321.96875 L 260.464844 321.96875 Z M 263.472656 298.53125 L 263.539062 297.933594 L 263.539062 297.460938 L 264.242188 297.460938 L 264.242188 297.882812 L 264.316406 298.542969 L 265.601562 311.691406 L 261.675781 311.691406 Z M 263.472656 298.53125 " fill-opacity="1" fill-rule="nonzero"/><path fill="#ce1628" d="M 136.289062 285.453125 L 130.882812 285.453125 L 129.3125 290.253906 L 132.917969 290.253906 Z M 136.289062 285.453125 " fill-opacity="1" fill-rule="nonzero"/><path fill="#ce1628" d="M 221.25 309.335938 L 225.070312 309.335938 L 225.070312 321.96875 L 231.8125 321.96875 L 231.8125 292.457031 L 225.070312 292.457031 L 225.070312 303.441406 L 221.25 303.441406 L 221.25 292.457031 L 214.316406 292.457031 L 214.316406 321.96875 L 221.25 321.96875 Z M 221.25 309.335938 " fill-opacity="1" fill-rule="nonzero"/><path fill="#ce1628" d="M 127.175781 292.308594 L 121.757812 321.96875 L 128.339844 321.96875 L 129.054688 316.382812 L 133.957031 316.382812 L 134.5 321.96875 L 141.878906 321.96875 L 136.167969 292.308594 Z M 129.582031 311.757812 L 131.261719 298.597656 L 131.34375 297.949219 L 131.34375 297.515625 L 132.0625 297.515625 L 132.167969 298.636719 L 133.429688 311.757812 Z M 129.582031 311.757812 " fill-opacity="1" fill-rule="nonzero"/><path fill="#ffffff" d="M 167.761719 222.457031 L 167.761719 250.328125 L 168.9375 250.328125 C 169.867188 250.328125 170.800781 250.285156 171.726562 250.191406 L 172.847656 250.109375 C 173.269531 250.109375 173.679688 249.976562 174.085938 249.894531 C 175.015625 249.757812 175.964844 249.570312 176.886719 249.351562 C 182.851562 247.898438 188.292969 244.820312 192.609375 240.453125 C 193.164062 239.886719 193.71875 239.277344 194.207031 238.683594 C 194.464844 238.382812 194.71875 238.074219 194.964844 237.761719 L 195.941406 236.507812 C 196.320312 235.914062 196.710938 235.34375 197.078125 234.75 C 197.316406 234.410156 197.539062 234.058594 197.738281 233.695312 C 198.011719 233.222656 198.28125 232.707031 198.523438 232.222656 C 198.636719 232.019531 198.730469 231.800781 198.851562 231.597656 C 199.359375 230.585938 199.808594 229.546875 200.207031 228.488281 C 200.207031 228.339844 200.300781 228.21875 200.355469 228.054688 C 200.597656 227.4375 200.800781 226.804688 200.960938 226.160156 C 201.800781 223.230469 202.222656 220.199219 202.222656 217.152344 C 202.203125 214.050781 201.746094 210.960938 200.867188 207.984375 C 200.691406 207.386719 200.515625 206.835938 200.300781 206.238281 C 200.234375 206.007812 200.148438 205.78125 200.042969 205.5625 C 199.722656 204.671875 199.355469 203.792969 198.949219 202.9375 C 198.804688 202.597656 198.640625 202.261719 198.457031 201.9375 C 198.226562 201.492188 198.023438 201.085938 197.765625 200.679688 C 197.511719 200.273438 197.199219 199.71875 196.914062 199.246094 C 196.632812 198.773438 196.429688 198.53125 196.210938 198.164062 C 195.765625 197.554688 195.328125 196.972656 194.855469 196.394531 L 194.289062 195.703125 C 192.503906 193.597656 190.460938 191.726562 188.207031 190.128906 L 170.140625 218.304688 Z M 167.761719 222.457031 " fill-opacity="1" fill-rule="nonzero"/><path fill="#ffffff" d="M 182.289062 186.75 C 180.539062 185.984375 178.726562 185.367188 176.875 184.910156 C 175.964844 184.679688 175.058594 184.53125 174.164062 184.367188 L 172.808594 184.152344 L 171.6875 184.058594 C 170.765625 184.058594 169.855469 183.921875 168.894531 183.921875 L 167.71875 183.921875 L 167.71875 215.113281 Z M 182.289062 186.75 " fill-opacity="1" fill-rule="nonzero"/><path fill="#ffffff" d="M 176.886719 180.40625 C 179.429688 180.957031 181.90625 181.769531 184.28125 182.839844 L 217.0625 118.734375 L 167.761719 143.699219 L 167.761719 173.101562 L 176.886719 173.101562 Z M 176.886719 180.40625 " fill-opacity="1" fill-rule="nonzero"/><path fill="#f3c108" d="M 166.09375 250.21875 L 164.875 250.097656 L 163.695312 249.921875 C 162.558594 249.730469 161.410156 249.5 160.296875 249.21875 C 154.332031 247.597656 148.9375 244.351562 144.710938 239.84375 C 143.953125 239.058594 143.261719 238.234375 142.597656 237.398438 C 142.4375 237.171875 142.242188 236.925781 142.082031 236.683594 C 140.96875 235.175781 139.996094 233.566406 139.171875 231.882812 C 139.171875 231.773438 139.0625 231.625 138.992188 231.503906 C 138.128906 229.671875 137.417969 227.773438 136.871094 225.824219 C 136.109375 222.992188 135.714844 220.074219 135.703125 217.140625 C 135.714844 214.160156 136.125 211.195312 136.925781 208.320312 C 137.453125 206.390625 138.15625 204.511719 139.035156 202.707031 C 139.035156 202.574219 139.171875 202.425781 139.242188 202.277344 C 139.539062 201.734375 139.808594 201.179688 140.121094 200.640625 L 140.429688 200.125 C 140.945312 199.300781 141.472656 198.460938 142.066406 197.664062 C 142.300781 197.339844 142.519531 197.042969 142.761719 196.746094 C 143.054688 196.34375 143.363281 195.960938 143.695312 195.59375 C 144.152344 195.023438 144.644531 194.484375 145.167969 193.972656 C 149.335938 189.695312 154.578125 186.621094 160.351562 185.070312 C 161.449219 184.800781 162.558594 184.558594 163.695312 184.382812 L 164.902344 184.191406 L 166.121094 184.042969 L 167.789062 183.949219 L 167.789062 173.128906 L 160.296875 173.128906 L 160.296875 180.609375 C 152.992188 182.328125 146.367188 186.183594 141.269531 191.6875 L 134.621094 187.84375 L 126.332031 202.207031 L 132.972656 206.035156 C 131.859375 209.613281 131.300781 213.339844 131.304688 217.085938 C 131.3125 220.789062 131.851562 224.46875 132.917969 228.015625 L 126.332031 231.800781 L 134.621094 246.148438 L 141.160156 242.386719 C 146.261719 247.984375 152.929688 251.914062 160.296875 253.667969 L 160.296875 260.972656 L 167.761719 260.972656 L 167.761719 250.273438 C 167.203125 250.273438 166.648438 250.273438 166.09375 250.164062 " fill-opacity="1" fill-rule="nonzero"/><path fill="#f3c108" d="M 176.886719 253.898438 C 184.410156 252.257812 191.25 248.359375 196.496094 242.726562 L 202.5625 246.214844 L 210.863281 231.867188 L 204.851562 228.421875 C 207.167969 221.042969 207.167969 213.132812 204.851562 205.753906 L 210.902344 202.277344 L 202.5625 187.898438 L 196.359375 191.46875 C 194.625 189.609375 192.707031 187.925781 190.632812 186.453125 L 188.273438 190.117188 C 190.515625 191.734375 192.546875 193.621094 194.3125 195.742188 L 194.882812 196.433594 C 195.355469 197.015625 195.792969 197.597656 196.238281 198.207031 C 196.453125 198.570312 196.699219 198.933594 196.941406 199.289062 C 197.183594 199.640625 197.523438 200.234375 197.792969 200.722656 C 198.066406 201.207031 198.253906 201.53125 198.484375 201.980469 C 198.667969 202.300781 198.832031 202.636719 198.976562 202.980469 C 199.382812 203.835938 199.75 204.710938 200.070312 205.601562 C 200.175781 205.820312 200.261719 206.046875 200.328125 206.28125 C 200.542969 206.875 200.71875 207.429688 200.894531 208.023438 C 201.773438 211.003906 202.230469 214.089844 202.25 217.195312 C 202.25 220.242188 201.828125 223.273438 200.988281 226.203125 C 200.828125 226.84375 200.625 227.476562 200.382812 228.09375 C 200.382812 228.257812 200.273438 228.378906 200.21875 228.527344 C 199.855469 229.589844 199.429688 230.628906 198.949219 231.640625 C 198.824219 231.84375 198.730469 232.058594 198.621094 232.261719 C 198.375 232.75 198.105469 233.261719 197.835938 233.734375 C 197.632812 234.097656 197.410156 234.453125 197.171875 234.789062 C 196.808594 235.386719 196.414062 235.953125 196.023438 236.546875 C 195.628906 237.140625 195.382812 237.371094 195.058594 237.800781 C 194.734375 238.234375 194.558594 238.425781 194.300781 238.722656 C 193.8125 239.316406 193.257812 239.925781 192.703125 240.496094 C 188.390625 244.859375 182.949219 247.941406 176.984375 249.394531 C 176.058594 249.609375 175.113281 249.800781 174.179688 249.933594 C 173.773438 250.015625 173.363281 250.097656 172.945312 250.152344 L 171.820312 250.230469 C 170.894531 250.324219 169.960938 250.371094 169.03125 250.367188 L 167.855469 250.367188 L 167.855469 261.066406 L 176.984375 261.066406 Z M 176.886719 253.898438 " fill-opacity="1" fill-rule="nonzero"/><path fill="#f3c108" d="M 168.964844 183.921875 C 169.925781 183.921875 170.835938 183.921875 171.753906 184.042969 L 172.875 184.152344 L 174.234375 184.367188 C 175.152344 184.53125 176.058594 184.679688 176.941406 184.910156 C 178.792969 185.367188 180.605469 185.980469 182.355469 186.734375 L 184.347656 182.839844 C 181.976562 181.769531 179.496094 180.957031 176.957031 180.40625 L 176.957031 173.101562 L 167.761719 173.101562 L 167.761719 183.921875 L 168.9375 183.921875 " fill-opacity="1" fill-rule="nonzero"/><path fill="#ce1628" d="M 206.609375 79.390625 L 210.957031 79.390625 L 210.957031 82 L 206.609375 82 Z M 206.609375 79.390625 " fill-opacity="1" fill-rule="nonzero"/><path fill="#ce1628" d="M 247.425781 77.539062 C 248.003906 77.632812 248.59375 77.632812 249.175781 77.539062 L 248.507812 77.539062 C 248.144531 77.539062 247.785156 77.511719 247.425781 77.457031 " fill-opacity="1" fill-rule="nonzero"/><path fill="#ce1628" d="M 246.277344 79.390625 L 250.609375 79.390625 L 250.609375 82 L 246.277344 82 Z M 246.277344 79.390625 " fill-opacity="1" fill-rule="nonzero"/><path fill="#ce1628" d="M 216.886719 57.683594 L 221.425781 57.683594 L 221.425781 77.363281 L 216.886719 77.363281 Z M 216.886719 57.683594 " fill-opacity="1" fill-rule="nonzero"/><path fill="#ce1628" d="M 207.085938 73.671875 L 210.386719 73.671875 L 210.726562 77.363281 L 215.726562 77.363281 L 211.851562 57.683594 L 205.867188 57.683594 L 202.277344 77.363281 L 206.609375 77.363281 Z M 208.644531 61.496094 L 208.644531 61.199219 L 209.101562 61.199219 L 209.101562 61.457031 L 210.007812 70.652344 L 207.460938 70.652344 Z M 208.644531 61.496094 " fill-opacity="1" fill-rule="nonzero"/><path fill="#ce1628" d="M 233.261719 68.9375 L 235.777344 68.9375 L 235.777344 77.363281 L 240.316406 77.363281 L 240.316406 57.683594 L 235.777344 57.683594 L 235.777344 65.015625 L 233.261719 65.015625 L 233.261719 57.683594 L 228.574219 57.683594 L 228.574219 77.363281 L 233.261719 77.363281 Z M 233.261719 68.9375 " fill-opacity="1" fill-rule="nonzero"/><g clip-path="url(#8d91ad0e84)"><path fill="#ce1628" d="M 87.710938 337.492188 L 287.539062 337.492188 L 287.539062 37.503906 L 87.710938 37.503906 Z M 124.277344 69.707031 L 128.242188 57.535156 L 132.195312 69.707031 L 144.992188 69.707031 L 134.621094 77.214844 L 138.574219 89.386719 L 128.214844 81.851562 L 117.832031 89.441406 L 121.796875 77.269531 L 111.425781 69.761719 Z M 285.855469 335.980469 L 89.191406 335.980469 L 89.191406 277.578125 L 156.898438 277.578125 C 158.617188 277.78125 167.449219 279 167.734375 286.574219 C 167.734375 284.773438 168.246094 277.972656 175.761719 277.578125 L 285.828125 277.578125 Z M 285.953125 275.929688 L 176.261719 275.929688 C 173.558594 276.066406 169.734375 275.929688 167.8125 280.785156 L 167.8125 261.023438 L 160.296875 261.023438 L 160.296875 253.707031 C 152.925781 251.964844 146.257812 248.039062 141.160156 242.441406 L 134.621094 246.203125 L 126.332031 231.855469 L 132.917969 228.070312 C 131.851562 224.523438 131.3125 220.839844 131.304688 217.140625 C 131.300781 213.394531 131.859375 209.667969 132.972656 206.089844 L 126.332031 202.261719 L 134.621094 187.898438 L 141.269531 191.6875 C 146.359375 186.15625 152.984375 182.269531 160.296875 180.527344 L 160.296875 173.046875 L 167.761719 173.046875 L 167.761719 141.644531 L 125.222656 163.285156 L 167.761719 135.640625 L 167.761719 39.125 L 285.953125 39.125 Z M 285.953125 275.929688 " fill-opacity="1" fill-rule="nonzero"/></g><path fill="#ce1628" d="M 186.757812 189.117188 L 168.652344 217.382812 L 183.902344 187.628906 C 183.375 187.359375 182.828125 187.101562 182.289062 186.871094 L 167.761719 215.273438 L 167.761719 183.949219 L 166.09375 184.042969 L 164.875 184.191406 L 163.667969 184.382812 C 162.53125 184.558594 161.421875 184.800781 160.324219 185.070312 C 154.550781 186.621094 149.3125 189.695312 145.140625 193.972656 C 144.617188 194.484375 144.125 195.023438 143.667969 195.59375 C 143.328125 195.972656 143.03125 196.351562 142.734375 196.746094 C 142.4375 197.136719 142.273438 197.339844 142.039062 197.664062 C 141.445312 198.460938 140.933594 199.300781 140.40625 200.125 L 140.09375 200.640625 C 139.78125 201.179688 139.523438 201.722656 139.214844 202.277344 L 139.007812 202.707031 C 138.128906 204.511719 137.425781 206.390625 136.898438 208.320312 C 136.101562 211.195312 135.6875 214.160156 135.675781 217.140625 C 135.6875 220.074219 136.082031 222.992188 136.84375 225.824219 C 137.390625 227.773438 138.101562 229.671875 138.96875 231.503906 C 138.96875 231.625 139.089844 231.773438 139.148438 231.882812 C 139.984375 233.5625 140.96875 235.171875 142.082031 236.683594 C 142.242188 236.925781 142.4375 237.171875 142.597656 237.398438 C 143.261719 238.234375 143.953125 239.058594 144.710938 239.84375 C 148.9375 244.351562 154.332031 247.597656 160.296875 249.21875 C 161.421875 249.5 162.558594 249.730469 163.695312 249.921875 L 164.875 250.097656 L 166.09375 250.21875 C 166.648438 250.21875 167.203125 250.300781 167.761719 250.328125 L 167.761719 222.457031 L 170.140625 218.304688 L 188.234375 190.117188 C 187.746094 189.765625 187.261719 189.441406 186.757812 189.117188 " fill-opacity="1" fill-rule="nonzero"/><path fill="#ce1628" d="M 184.28125 182.839844 C 184.820312 183.085938 185.363281 183.339844 185.890625 183.613281 L 221.101562 114.636719 L 167.761719 141.644531 L 167.761719 143.644531 L 217.0625 118.734375 Z M 184.28125 182.839844 " fill-opacity="1" fill-rule="nonzero"/><path fill="#ce1628" d="M 229.15625 95.785156 C 228.855469 96.652344 228.691406 97.566406 228.671875 98.488281 C 228.671875 100.734375 229.5625 102.886719 231.15625 104.46875 C 232.742188 106.054688 234.902344 106.945312 237.148438 106.941406 C 238.03125 106.925781 238.90625 106.777344 239.75 106.496094 L 189.113281 185.449219 C 189.617188 185.777344 190.105469 186.101562 190.589844 186.453125 L 243.40625 104.25 C 244.097656 103.285156 244.699219 102.257812 245.203125 101.179688 C 246.097656 98.609375 245.679688 95.765625 244.085938 93.558594 C 242.496094 91.355469 239.925781 90.058594 237.203125 90.089844 C 235.9375 90.089844 234.691406 90.382812 233.5625 90.941406 L 232.675781 91.429688 L 232.324219 91.644531 L 167.761719 133.53125 L 167.761719 135.65625 Z M 237.148438 91.875 C 240.84375 91.875 243.839844 94.867188 243.839844 98.554688 C 243.839844 102.246094 240.84375 105.238281 237.148438 105.238281 C 233.453125 105.238281 230.460938 102.246094 230.460938 98.554688 C 230.460938 94.867188 233.453125 91.875 237.148438 91.875 " fill-opacity="1" fill-rule="nonzero"/><path fill="#ce1628" d="M 185.890625 183.570312 C 185.363281 183.300781 184.820312 183.042969 184.28125 182.800781 L 182.289062 186.707031 C 182.828125 186.9375 183.375 187.195312 183.902344 187.464844 Z M 185.890625 183.570312 " fill-opacity="1" fill-rule="nonzero"/><path fill="#ce1628" d="M 186.757812 189.117188 C 187.261719 189.441406 187.746094 189.765625 188.234375 190.117188 L 190.632812 186.453125 C 190.144531 186.101562 189.65625 185.777344 189.152344 185.449219 Z M 186.757812 189.117188 " fill-opacity="1" fill-rule="nonzero"/><path fill="#f3c108" d="M 125.222656 163.242188 L 167.761719 141.699219 L 167.761719 135.640625 Z M 125.222656 163.242188 " fill-opacity="1" fill-rule="nonzero"/><path fill="#f3c108" d="M 237.148438 105.222656 C 240.84375 105.222656 243.839844 102.230469 243.839844 98.539062 C 243.835938 94.847656 240.835938 91.855469 237.140625 91.859375 C 233.445312 91.867188 230.453125 94.863281 230.460938 98.554688 C 230.460938 100.328125 231.164062 102.023438 232.417969 103.277344 C 233.675781 104.527344 235.375 105.226562 237.148438 105.222656 " fill-opacity="1" fill-rule="nonzero"/><path fill="#f3c108" d="M 239.75 106.5625 C 238.902344 106.84375 238.023438 106.996094 237.136719 107.007812 C 232.457031 107.007812 228.671875 103.226562 228.671875 98.554688 C 228.691406 97.632812 228.855469 96.722656 229.15625 95.851562 L 167.761719 135.640625 L 167.761719 141.644531 L 221.128906 114.597656 L 185.917969 183.570312 C 187.03125 184.140625 188.097656 184.746094 189.140625 185.410156 Z M 239.75 106.5625 " fill-opacity="1" fill-rule="nonzero"/><path fill="#f3c108" d="M 168.652344 217.382812 L 186.757812 189.117188 C 185.835938 188.535156 184.875 187.992188 183.902344 187.507812 Z M 168.652344 217.382812 " fill-opacity="1" fill-rule="nonzero"/><path fill="#f3c108" d="M 186.757812 189.117188 L 189.113281 185.449219 C 188.074219 184.769531 187 184.140625 185.890625 183.570312 L 183.859375 187.507812 C 184.835938 187.992188 185.796875 188.535156 186.71875 189.117188 " fill-opacity="1" fill-rule="nonzero"/><path fill="#f3c108" d="M 117.84375 89.441406 L 128.214844 81.90625 L 138.574219 89.441406 L 134.621094 77.253906 L 144.992188 69.746094 L 132.167969 69.746094 L 128.214844 57.546875 L 124.25 69.746094 L 111.425781 69.746094 L 121.796875 77.253906 Z M 117.84375 89.441406 " fill-opacity="1" fill-rule="nonzero"/><path fill="#f3c108" d="M 131.34375 297.949219 L 131.261719 298.597656 L 131.359375 297.949219 L 131.34375 297.949219 " fill-opacity="1" fill-rule="nonzero"/><path fill="#f3c108" d="M 264.355469 297.894531 L 264.421875 298.558594 Z M 264.355469 297.894531 " fill-opacity="1" fill-rule="nonzero"/><path fill="#f3c108" d="M 153.050781 297.179688 C 153.273438 297.230469 153.484375 297.324219 153.675781 297.449219 C 153.492188 297.308594 153.28125 297.214844 153.050781 297.179688 " fill-opacity="1" fill-rule="nonzero"/><path fill="#f3c108" d="M 263.539062 297.949219 L 263.472656 298.558594 L 263.539062 297.949219 " fill-opacity="1" fill-rule="nonzero"/><path fill="#ce1628" d="M 119.15625 309.945312 C 119.15625 307.855469 117.460938 306.160156 115.367188 306.160156 C 117.34375 306.003906 118.863281 304.351562 118.859375 302.371094 L 118.859375 297.746094 C 118.722656 294.628906 116.148438 292.171875 113.023438 292.171875 L 102.609375 292.171875 L 102.609375 321.632812 L 113.304688 321.632812 C 116.535156 321.632812 119.15625 319.015625 119.15625 315.789062 L 119.15625 309.960938 M 109.191406 303.941406 L 109.191406 297.273438 L 111.628906 297.273438 C 112.308594 297.40625 112.800781 298 112.804688 298.691406 L 112.804688 302.25 C 112.804688 303.007812 112.292969 303.667969 111.5625 303.859375 C 111.421875 303.878906 111.28125 303.878906 111.140625 303.859375 Z M 111.898438 316.964844 L 109.191406 316.964844 L 109.191406 308.851562 L 111.738281 308.851562 C 112.558594 308.878906 113.230469 309.507812 113.320312 310.324219 C 113.320312 310.347656 113.320312 310.371094 113.320312 310.390625 L 113.320312 315.503906 C 113.324219 315.890625 113.171875 316.261719 112.898438 316.535156 C 112.628906 316.8125 112.257812 316.964844 111.871094 316.964844 " fill-opacity="1" fill-rule="nonzero"/><path fill="#f3c108" d="M 113.332031 310.390625 C 113.335938 310.371094 113.335938 310.347656 113.332031 310.324219 C 113.339844 310.382812 113.339844 310.441406 113.332031 310.5 Z M 113.332031 310.390625 " fill-opacity="1" fill-rule="nonzero"/><path fill="#f3c108" d="M 112.804688 302.222656 L 112.804688 298.734375 C 112.800781 298.039062 112.308594 297.449219 111.628906 297.3125 L 109.191406 297.3125 L 109.191406 303.941406 L 111.140625 303.941406 C 111.28125 303.953125 111.421875 303.953125 111.5625 303.941406 C 112.292969 303.75 112.804688 303.089844 112.804688 302.332031 L 112.804688 302.261719 " fill-opacity="1" fill-rule="nonzero"/><path fill="#f3c108" d="M 110.097656 316.964844 C 109.792969 316.984375 109.492188 316.984375 109.191406 316.964844 C 109.492188 316.992188 109.792969 316.992188 110.097656 316.964844 " fill-opacity="1" fill-rule="nonzero"/><path fill="#f3c108" d="M 113.332031 315.4375 L 113.332031 310.511719 C 113.339844 310.457031 113.339844 310.394531 113.332031 310.335938 C 113.246094 309.519531 112.570312 308.890625 111.75 308.863281 L 109.191406 308.863281 L 109.191406 316.980469 C 109.492188 316.996094 109.792969 316.996094 110.097656 316.980469 C 109.792969 317.003906 109.492188 317.003906 109.191406 316.980469 L 111.898438 316.980469 C 112.285156 316.980469 112.65625 316.824219 112.925781 316.550781 C 113.199219 316.277344 113.351562 315.902344 113.347656 315.519531 L 113.347656 315.4375 " fill-opacity="1" fill-rule="nonzero"/><path fill="#f3c108" d="M 132.238281 298.636719 L 132.128906 297.515625 L 131.410156 297.515625 L 131.359375 297.949219 L 131.261719 298.597656 L 129.582031 311.757812 L 133.5 311.757812 Z M 132.238281 298.636719 " fill-opacity="1" fill-rule="nonzero"/><path fill="#f3c108" d="M 264.421875 298.613281 L 264.421875 298.542969 L 264.355469 297.894531 L 264.316406 297.476562 L 263.609375 297.476562 L 263.539062 297.949219 L 263.472656 298.558594 L 261.78125 311.757812 L 265.707031 311.757812 Z M 264.421875 298.613281 " fill-opacity="1" fill-rule="nonzero"/><path fill="#f3c108" d="M 154.59375 315.316406 C 154.601562 315.257812 154.601562 315.199219 154.59375 315.140625 L 154.59375 315.503906 C 154.601562 315.441406 154.601562 315.378906 154.59375 315.316406 " fill-opacity="1" fill-rule="nonzero"/><path fill="#f3c108" d="M 154.582031 315.585938 L 154.582031 315.503906 C 154.585938 315.53125 154.585938 315.558594 154.582031 315.585938 Z M 154.582031 315.585938 " fill-opacity="1" fill-rule="nonzero"/><path fill="#f3c108" d="M 150.628906 315.585938 C 150.621094 315.496094 150.621094 315.40625 150.628906 315.316406 Z M 150.628906 315.585938 " fill-opacity="1" fill-rule="nonzero"/><path fill="#f3c108" d="M 175.734375 277.578125 C 168.234375 277.972656 167.707031 284.773438 167.707031 286.574219 C 167.382812 279 158.78125 277.578125 156.871094 277.578125 L 89.164062 277.578125 L 89.164062 335.980469 L 285.855469 335.980469 L 285.855469 277.578125 Z M 130.832031 285.453125 L 136.25 285.453125 L 132.871094 290.253906 L 129.3125 290.253906 Z M 119.101562 309.960938 L 119.101562 315.789062 C 119.101562 319.015625 116.480469 321.632812 113.25 321.632812 L 102.609375 321.632812 L 102.609375 292.171875 L 113.007812 292.171875 C 116.140625 292.164062 118.722656 294.621094 118.859375 297.746094 L 118.859375 302.371094 C 118.859375 304.335938 117.355469 305.976562 115.390625 306.144531 C 117.488281 306.144531 119.183594 307.839844 119.183594 309.933594 Z M 134.417969 321.96875 L 133.878906 316.382812 L 129.042969 316.382812 L 128.339844 321.96875 L 121.785156 321.96875 L 127.203125 292.308594 L 136.195312 292.308594 L 141.878906 321.96875 Z M 161.097656 301.683594 L 161.097656 303.425781 L 154.582031 303.425781 L 154.582031 299.042969 C 154.546875 298.152344 153.921875 297.386719 153.050781 297.179688 L 152.945312 297.179688 C 152.832031 297.164062 152.71875 297.164062 152.605469 297.179688 C 152.082031 297.179688 151.570312 297.386719 151.199219 297.761719 C 150.832031 298.132812 150.625 298.640625 150.628906 299.164062 L 150.628906 315.394531 C 150.621094 315.484375 150.621094 315.578125 150.628906 315.667969 C 150.761719 316.648438 151.597656 317.378906 152.59375 317.382812 C 153.585938 317.386719 154.425781 316.652344 154.554688 315.667969 C 154.558594 315.640625 154.558594 315.613281 154.554688 315.585938 L 154.554688 310.3125 L 161.125 310.3125 L 161.125 315.464844 C 160.984375 319.265625 157.128906 322.308594 152.402344 322.308594 C 147.675781 322.308594 143.667969 319.140625 143.667969 315.246094 L 143.667969 299.21875 C 143.667969 295.324219 147.582031 292.171875 152.402344 292.171875 C 157.222656 292.171875 161.125 295.339844 161.125 299.234375 Z M 181.492188 321.96875 L 174.71875 321.96875 L 174.71875 309.351562 L 170.996094 309.351562 L 170.996094 321.984375 L 164.074219 321.984375 L 164.074219 292.457031 L 170.996094 292.457031 L 170.996094 303.441406 L 174.816406 303.441406 L 174.816406 292.457031 L 181.585938 292.457031 Z M 212.054688 321.660156 L 204.878906 321.660156 L 201.820312 311.269531 L 200.21875 313.757812 L 200.21875 321.660156 L 193.773438 321.660156 L 193.773438 292.375 L 200.257812 292.375 L 200.257812 304.320312 L 204.753906 292.375 L 212.109375 292.375 L 206.328125 304.089844 Z M 231.757812 321.96875 L 224.988281 321.96875 L 224.988281 309.351562 L 221.25 309.351562 L 221.25 321.984375 L 214.316406 321.984375 L 214.316406 292.457031 L 221.25 292.457031 L 221.25 303.441406 L 225.070312 303.441406 L 225.070312 292.457031 L 231.839844 292.457031 Z M 252.167969 301.113281 L 252.167969 315.191406 C 252.167969 319.074219 248.277344 322.210938 243.472656 322.210938 C 238.664062 322.210938 234.792969 319.074219 234.792969 315.191406 L 234.792969 299.21875 C 234.792969 295.339844 238.675781 292.1875 243.472656 292.1875 C 248.265625 292.1875 252.167969 295.339844 252.167969 299.21875 Z M 266.628906 321.96875 L 266.101562 316.382812 L 261.140625 316.382812 L 260.453125 321.96875 L 253.9375 321.96875 L 259.355469 292.308594 L 268.375 292.308594 L 274.117188 321.96875 Z M 266.628906 321.96875 " fill-opacity="1" fill-rule="nonzero"/><path fill="#ce1628" d="M 152.429688 292.160156 C 147.59375 292.160156 143.695312 295.3125 143.695312 299.207031 L 143.695312 315.167969 C 143.695312 319.0625 147.59375 322.226562 152.429688 322.226562 C 157.261719 322.226562 161.011719 319.183594 161.152344 315.382812 L 161.152344 310.230469 L 154.582031 310.230469 L 154.582031 315.140625 C 154.585938 315.199219 154.585938 315.257812 154.582031 315.316406 C 154.585938 315.378906 154.585938 315.441406 154.582031 315.503906 L 154.582031 315.585938 C 154.453125 316.570312 153.613281 317.304688 152.621094 317.304688 C 151.625 317.300781 150.789062 316.566406 150.65625 315.585938 C 150.65625 315.585938 150.65625 315.367188 150.65625 315.316406 L 150.65625 299.085938 C 150.652344 298.558594 150.859375 298.054688 151.226562 297.679688 C 151.597656 297.304688 152.105469 297.097656 152.632812 297.097656 C 152.746094 297.082031 152.859375 297.082031 152.972656 297.097656 L 153.078125 297.097656 C 153.304688 297.132812 153.519531 297.226562 153.703125 297.367188 C 154.265625 297.730469 154.609375 298.359375 154.609375 299.03125 L 154.609375 303.414062 L 161.179688 303.414062 L 161.179688 299.164062 C 161.179688 295.269531 157.277344 292.105469 152.457031 292.105469 " fill-opacity="1" fill-rule="nonzero"/><path fill="#ce1628" d="M 241.425781 299.085938 L 241.425781 299.21875 C 241.421875 299.175781 241.421875 299.128906 241.425781 299.085938 " fill-opacity="1" fill-rule="nonzero"/><path fill="#ce1628" d="M 252.222656 315.191406 L 252.222656 313.839844 C 252.222656 313.839844 252.222656 314.152344 252.222656 314.585938 C 252.234375 314.800781 252.234375 315.019531 252.222656 315.234375 " fill-opacity="1" fill-rule="nonzero"/><path fill="#ce1628" d="M 252.113281 315.191406 L 252.222656 315.191406 C 252.234375 314.976562 252.234375 314.761719 252.222656 314.542969 C 252.222656 314.734375 252.222656 314.964844 252.222656 315.191406 " fill-opacity="1" fill-rule="nonzero"/><path fill="#ce1628" d="M 243.527344 292.1875 C 238.730469 292.1875 234.84375 295.339844 234.84375 299.21875 L 234.84375 315.113281 C 234.84375 318.992188 238.730469 322.132812 243.527344 322.132812 C 248.320312 322.132812 252.222656 318.992188 252.222656 315.113281 L 252.113281 315.113281 C 252.113281 314.882812 252.113281 314.652344 252.113281 314.460938 C 252.113281 314.03125 252.113281 313.71875 252.113281 313.71875 L 252.113281 299.21875 C 252.113281 295.339844 248.222656 292.1875 243.417969 292.1875 M 245.394531 299.21875 L 245.394531 315.585938 C 245.253906 316.570312 244.410156 317.300781 243.417969 317.304688 C 242.839844 317.300781 242.285156 317.042969 241.914062 316.601562 C 241.691406 316.34375 241.542969 316.039062 241.480469 315.707031 C 241.480469 315.707031 241.480469 315.625 241.480469 315.585938 C 241.480469 315.542969 241.480469 315.410156 241.480469 315.316406 L 241.480469 299.085938 C 241.476562 298.109375 242.183594 297.277344 243.148438 297.125 L 243.460938 297.125 C 243.984375 297.125 244.488281 297.332031 244.859375 297.707031 C 245.230469 298.082031 245.4375 298.585938 245.433594 299.113281 Z M 245.394531 299.21875 " fill-opacity="1" fill-rule="nonzero"/><path fill="#f3c108" d="M 245.5 299.085938 C 245.503906 298.558594 245.296875 298.054688 244.929688 297.679688 C 244.558594 297.304688 244.054688 297.097656 243.527344 297.097656 L 243.214844 297.097656 C 242.25 297.25 241.542969 298.082031 241.546875 299.058594 L 241.546875 315.289062 C 241.546875 315.382812 241.546875 315.464844 241.546875 315.558594 C 241.546875 315.652344 241.546875 315.640625 241.546875 315.679688 C 241.609375 316.011719 241.761719 316.320312 241.980469 316.574219 C 242.351562 317.019531 242.90625 317.273438 243.484375 317.277344 C 244.480469 317.273438 245.320312 316.542969 245.460938 315.558594 L 245.460938 299.058594 M 245.339844 315.191406 Z M 245.339844 315.191406 " fill-opacity="1" fill-rule="nonzero"/><path fill="#ce1628" d="M 200.894531 61.753906 C 200.894531 59.511719 199.078125 57.695312 196.832031 57.695312 L 189.179688 57.695312 L 189.179688 65.417969 L 188.113281 65.417969 L 188.113281 68.125 L 189.179688 68.125 L 189.179688 77.335938 L 196.859375 77.335938 C 199.105469 77.335938 200.921875 75.519531 200.921875 73.277344 C 200.929688 73.25 200.929688 73.222656 200.921875 73.195312 L 200.921875 62.078125 C 200.921875 62.078125 200.921875 61.996094 200.921875 61.972656 C 200.929688 61.898438 200.929688 61.828125 200.921875 61.753906 M 195.421875 74.117188 L 193.570312 74.117188 L 193.570312 68.042969 L 195.085938 68.042969 L 195.085938 65.339844 L 193.636719 65.339844 L 193.636719 60.890625 L 195.300781 60.890625 C 195.378906 60.875 195.460938 60.875 195.535156 60.890625 L 195.644531 60.890625 C 195.679688 60.882812 195.714844 60.882812 195.75 60.890625 L 195.832031 60.890625 C 196.074219 61.089844 196.207031 61.398438 196.183594 61.714844 L 196.183594 72.65625 C 196.1875 72.808594 196.160156 72.960938 196.101562 73.101562 C 195.957031 73.476562 195.640625 73.757812 195.246094 73.859375 " fill-opacity="1" fill-rule="nonzero"/><path fill="#ffffff" d="M 196.332031 65.769531 L 196.332031 61.972656 C 196.355469 61.65625 196.230469 61.351562 195.996094 61.144531 L 195.914062 61.144531 C 195.878906 61.136719 195.839844 61.136719 195.804688 61.144531 L 195.699219 61.144531 C 195.621094 61.132812 195.542969 61.132812 195.46875 61.144531 L 193.636719 61.144531 L 193.636719 65.664062 L 195.085938 65.664062 L 195.085938 68.367188 L 193.636719 68.367188 L 193.636719 74.441406 L 195.410156 74.441406 C 195.800781 74.339844 196.117188 74.058594 196.265625 73.683594 C 196.324219 73.542969 196.359375 73.390625 196.359375 73.238281 Z M 196.332031 65.769531 " fill-opacity="1" fill-rule="nonzero"/><path fill="#ffffff" d="M 209.171875 61.390625 L 209.144531 61.132812 L 208.683594 61.132812 L 208.644531 61.429688 L 207.460938 70.585938 L 210.078125 70.585938 Z M 209.171875 61.390625 " fill-opacity="1" fill-rule="nonzero"/><path fill="#ce1628" d="M 254.414062 61.644531 C 254.25 59.128906 251.703125 57.117188 248.507812 57.117188 C 245.3125 57.117188 242.605469 59.253906 242.605469 61.890625 L 242.605469 72.789062 C 242.605469 75.128906 244.675781 77.066406 247.425781 77.484375 C 247.785156 77.539062 248.144531 77.566406 248.507812 77.566406 L 249.175781 77.566406 C 252.113281 77.292969 254.398438 75.292969 254.425781 72.84375 L 254.425781 61.847656 C 254.425781 61.769531 254.425781 61.6875 254.425781 61.605469 M 248.628906 74.128906 C 248.550781 74.144531 248.46875 74.144531 248.386719 74.128906 C 248.160156 74.136719 247.9375 74.058594 247.765625 73.914062 C 247.398438 73.691406 247.15625 73.3125 247.113281 72.886719 L 247.113281 61.660156 C 247.230469 61.019531 247.820312 60.574219 248.46875 60.632812 C 249.128906 60.542969 249.734375 61.003906 249.824219 61.660156 L 249.824219 72.886719 C 249.792969 73.535156 249.304688 74.066406 248.660156 74.15625 " fill-opacity="1" fill-rule="nonzero"/><path fill="#ffffff" d="M 248.453125 60.632812 C 247.804688 60.574219 247.21875 61.019531 247.101562 61.660156 L 247.101562 72.964844 C 247.144531 73.394531 247.382812 73.773438 247.75 73.996094 C 247.925781 74.140625 248.144531 74.21875 248.371094 74.210938 C 248.453125 74.222656 248.535156 74.222656 248.617188 74.210938 C 249.261719 74.121094 249.75 73.585938 249.785156 72.941406 L 249.785156 61.714844 C 249.691406 61.058594 249.085938 60.597656 248.425781 60.6875 " fill-opacity="1" fill-rule="nonzero"/><path fill="#ce1628" d="M 262.078125 57.117188 C 258.816406 57.117188 256.160156 59.253906 256.160156 61.890625 L 256.160156 72.789062 C 256.160156 75.429688 258.871094 77.578125 262.078125 77.578125 C 265.289062 77.578125 267.996094 75.429688 267.996094 72.789062 L 267.996094 69.449219 L 263.511719 69.449219 L 263.511719 72.84375 C 263.519531 73.523438 263.023438 74.101562 262.351562 74.199219 L 262.160156 74.199219 C 261.925781 74.199219 261.695312 74.132812 261.5 74.007812 C 261.109375 73.789062 260.855469 73.394531 260.816406 72.953125 L 260.816406 61.945312 C 260.832031 61.328125 261.265625 60.800781 261.863281 60.660156 L 262.121094 60.660156 C 262.867188 60.660156 263.472656 61.265625 263.472656 62.011719 L 263.472656 64.945312 L 267.957031 64.945312 L 267.957031 61.847656 C 267.957031 59.144531 265.316406 57.074219 262.039062 57.074219 " fill-opacity="1" fill-rule="nonzero"/><path fill="#ffffff" d="M 167.761719 39.125 L 167.761719 133.53125 L 232.273438 91.605469 L 232.625 91.386719 L 233.519531 90.914062 C 234.644531 90.34375 235.886719 90.046875 237.148438 90.050781 C 239.871094 90.019531 242.441406 91.3125 244.03125 93.519531 C 245.625 95.726562 246.042969 98.570312 245.148438 101.140625 C 244.644531 102.214844 244.042969 103.242188 243.351562 104.210938 L 190.632812 186.453125 C 192.722656 187.925781 194.652344 189.605469 196.402344 191.46875 L 202.601562 187.898438 L 210.902344 202.261719 L 204.851562 205.738281 C 207.167969 213.117188 207.167969 221.027344 204.851562 228.40625 L 210.863281 231.855469 L 202.5625 246.203125 L 196.496094 242.710938 C 191.253906 248.351562 184.410156 252.253906 176.886719 253.898438 L 176.886719 261.039062 L 167.761719 261.039062 L 167.761719 280.800781 C 169.679688 275.996094 174.800781 276.078125 176.34375 276.078125 L 285.953125 275.945312 L 285.953125 39.125 Z M 200.894531 62.121094 L 200.894531 73.316406 C 200.894531 75.558594 199.078125 77.375 196.832031 77.375 L 189.179688 77.375 L 189.179688 68.152344 L 188.113281 68.152344 L 188.113281 65.445312 L 189.179688 65.445312 L 189.179688 57.683594 L 196.820312 57.683594 C 199.066406 57.683594 200.882812 59.5 200.882812 61.742188 C 200.886719 61.8125 200.886719 61.886719 200.882812 61.957031 C 200.890625 61.992188 200.890625 62.03125 200.882812 62.066406 M 210.941406 82 L 206.609375 82 L 206.609375 79.433594 L 210.941406 79.433594 Z M 210.726562 77.363281 L 210.386719 73.671875 L 207.085938 73.671875 L 206.609375 77.363281 L 202.277344 77.363281 L 205.867188 57.683594 L 211.851562 57.683594 L 215.726562 77.363281 Z M 221.425781 77.363281 L 216.886719 77.363281 L 216.886719 57.683594 L 221.425781 57.683594 Z M 240.386719 77.363281 L 235.847656 77.363281 L 235.847656 68.9375 L 233.332031 68.9375 L 233.332031 77.363281 L 228.546875 77.363281 L 228.546875 57.683594 L 233.234375 57.683594 L 233.234375 65.015625 L 235.75 65.015625 L 235.75 57.683594 L 240.289062 57.683594 Z M 250.675781 82 L 246.34375 82 L 246.34375 79.433594 L 250.675781 79.433594 Z M 254.425781 61.847656 L 254.425781 72.832031 C 254.425781 75.28125 252.113281 77.28125 249.175781 77.550781 C 248.59375 77.644531 248.003906 77.644531 247.425781 77.550781 C 244.71875 77.132812 242.605469 75.199219 242.605469 72.859375 L 242.605469 61.847656 C 242.605469 59.144531 245.3125 57.074219 248.507812 57.074219 C 251.703125 57.074219 254.277344 59.144531 254.414062 61.644531 C 254.414062 61.644531 254.414062 61.769531 254.414062 61.835938 Z M 267.972656 63.28125 L 267.972656 64.878906 L 263.484375 64.878906 L 263.484375 61.984375 C 263.484375 61.238281 262.878906 60.632812 262.132812 60.632812 L 261.875 60.632812 C 261.273438 60.769531 260.832031 61.296875 260.816406 61.917969 L 260.816406 72.925781 C 260.855469 73.367188 261.109375 73.761719 261.5 73.980469 C 261.695312 74.105469 261.925781 74.171875 262.160156 74.171875 L 262.351562 74.171875 C 263.023438 74.074219 263.519531 73.496094 263.511719 72.816406 L 263.511719 69.449219 L 267.996094 69.449219 L 267.996094 72.84375 C 267.996094 75.480469 265.355469 77.621094 262.078125 77.621094 C 258.800781 77.621094 256.160156 75.480469 256.160156 72.84375 L 256.160156 61.929688 C 256.160156 59.226562 258.871094 57.15625 262.078125 57.15625 C 265.289062 57.15625 267.996094 59.292969 267.996094 61.929688 Z M 267.972656 63.28125 " fill-opacity="1" fill-rule="nonzero"/></svg>