<svg xmlns="http://www.w3.org/2000/svg" xmlns:xlink="http://www.w3.org/1999/xlink" width="500" zoomAndPan="magnify" viewBox="0 0 375 374.999991" height="500" preserveAspectRatio="xMidYMid meet" version="1.0"><defs><clipPath id="3d05f059f6"><path d="M 37.5 37.5 L 337.5 37.5 L 337.5 337.5 L 37.5 337.5 Z M 37.5 37.5 " clip-rule="nonzero"/></clipPath></defs><path fill="#ffffff" d="M 187.621094 318.914062 C 260.773438 318.914062 320.074219 259.613281 320.074219 186.460938 C 320.074219 113.304688 260.773438 54.003906 187.621094 54.003906 C 114.46875 54.003906 55.167969 113.304688 55.167969 186.460938 C 55.167969 259.613281 114.46875 318.914062 187.621094 318.914062 " fill-opacity="1" fill-rule="nonzero"/><g clip-path="url(#3d05f059f6)"><path stroke-linecap="butt" transform="matrix(2.92409, 0, 0, 2.92409, 45.991561, 45.991557)" fill="none" stroke-linejoin="miter" d="M 2.571794 48.394003 C 2.571794 23.086988 23.088323 2.570459 48.395337 2.570459 C 73.703688 2.570459 94.218881 23.086988 94.218881 48.394003 C 94.218881 73.702353 73.703688 94.217547 48.395337 94.217547 C 23.088323 94.217547 2.571794 73.702353 2.571794 48.394003 Z M 2.571794 48.394003 " stroke="#231f20" stroke-width="1.635" stroke-opacity="1" stroke-miterlimit="3.864"/><path stroke-linecap="butt" transform="matrix(2.92409, 0, 0, 2.92409, 45.991561, 45.991557)" fill="none" stroke-linejoin="miter" d="M 0.346208 48.394003 C 0.346208 21.857974 21.857972 0.34621 48.394001 0.34621 C 74.930031 0.34621 96.441794 21.857974 96.441794 48.394003 C 96.441794 74.930032 74.930031 96.441796 48.394001 96.441796 C 21.857972 96.441796 0.346208 74.930032 0.346208 48.394003 Z M 0.346208 48.394003 " stroke="#231f20" stroke-width="0.694" stroke-opacity="1" stroke-miterlimit="3.864"/></g><path fill="#6d0118" d="M 188.363281 74.820312 C 182.605469 79.558594 180.140625 89.265625 180.140625 96.476562 C 180.140625 111.621094 201.796875 118.34375 201.796875 133.484375 C 201.796875 144.300781 199.304688 150.261719 187.816406 158.066406 C 209.527344 158.277344 217.539062 148.523438 214.316406 130.835938 C 213.105469 124.195312 204.886719 114.027344 198.964844 108.996094 C 189.113281 100.644531 185.605469 95.878906 188.363281 74.820312 Z M 175.9375 105.160156 C 176.378906 106.496094 177.855469 109.019531 177.855469 110.457031 C 177.855469 123.132812 165.882812 128.308594 165.882812 140.980469 C 165.882812 149.324219 170.992188 158.433594 179.957031 158.433594 C 184.496094 158.433594 187.773438 155.347656 190.375 152.035156 C 193.820312 147.652344 194.253906 142.890625 192.566406 137.230469 C 191.992188 135.308594 188.78125 131.472656 191.195312 127.089844 C 186.136719 129.121094 187.046875 142.34375 180.046875 145.820312 C 178.945312 143.351562 177.855469 141.921875 177.855469 139.242188 C 177.855469 130.691406 184.984375 127.140625 184.984375 118.589844 C 184.984375 113.851562 181.027344 105.777344 175.9375 105.160156 Z M 175.9375 105.160156 " fill-opacity="1" fill-rule="nonzero"/><path fill="#231f20" d="M 207.460938 64.953125 C 201.460938 65.273438 194.996094 69.839844 193.847656 77.105469 C 192.632812 84.773438 196.300781 91.839844 204.8125 93.1875 C 213.199219 94.519531 219.738281 88.230469 220.894531 80.945312 C 221.875 74.757812 219.332031 66.535156 209.929688 65.042969 C 209.109375 64.914062 208.320312 64.90625 207.460938 64.953125 Z M 163.144531 66.78125 C 162.539062 66.820312 161.832031 66.90625 161.132812 67.054688 L 148.980469 69.613281 L 149.070312 70.160156 C 150.761719 70.066406 151.378906 70.355469 151.628906 71.53125 L 156.289062 93.644531 C 156.539062 94.820312 156.136719 95.234375 154.554688 95.839844 L 154.644531 96.476562 C 155.527344 96.292969 157.25 95.628906 158.847656 95.289062 C 160.441406 94.953125 162.171875 94.835938 163.050781 94.648438 L 162.960938 94.101562 C 161.273438 94.195312 160.652344 93.90625 160.402344 92.730469 L 155.742188 70.617188 L 158.027344 70.160156 C 161.550781 69.410156 165.21875 69.1875 166.066406 73.175781 C 166.851562 76.867188 164.125 79.375 159.761719 80.304688 C 159.425781 80.375 159.066406 80.601562 159.121094 80.851562 C 159.15625 81.019531 159.574219 81.382812 160.21875 81.949219 L 167.164062 87.980469 C 171.570312 91.996094 172.070312 92.613281 172.554688 92.640625 C 173.605469 92.417969 174.664062 91.957031 175.753906 91.726562 C 176.464844 91.574219 177.28125 91.613281 178.039062 91.453125 L 177.855469 90.902344 C 176.609375 91.035156 175.34375 90.21875 173.742188 88.894531 L 163.964844 80.578125 C 167.925781 79.386719 171 76.085938 170.089844 71.804688 C 169.4375 68.761719 167.386719 66.507812 163.144531 66.78125 Z M 207.003906 67.695312 C 207.46875 67.683594 207.898438 67.722656 208.285156 67.785156 C 213.664062 68.636719 217.957031 74.441406 216.78125 81.855469 C 215.714844 88.59375 210.765625 91.160156 206.273438 90.445312 C 199.75 89.417969 196.921875 82.621094 197.867188 76.648438 C 198.949219 69.828125 203.753906 67.769531 207.003906 67.695312 Z M 238.621094 72.992188 L 238.347656 73.449219 C 239.621094 74.355469 239.832031 75.230469 239.902344 76.648438 L 240.632812 92.824219 L 237.34375 99.675781 C 236.703125 100.988281 235.859375 101.5 233.777344 100.773438 L 233.503906 101.320312 C 235.011719 102.054688 236.824219 102.585938 237.980469 103.148438 C 239.136719 103.714844 240.683594 104.789062 242.183594 105.523438 L 242.460938 104.976562 C 240.605469 103.785156 240.449219 102.816406 241.089844 101.503906 L 244.46875 94.648438 L 256.347656 85.421875 C 258.175781 84.019531 259.046875 83.683594 260.550781 84.324219 L 260.734375 83.777344 C 259.5 83.175781 258.460938 82.945312 257.535156 82.496094 C 256.300781 81.894531 254.882812 80.886719 253.882812 80.394531 L 253.609375 80.945312 C 254.878906 81.660156 255.300781 82.207031 254.976562 82.863281 C 254.828125 83.171875 254.632812 83.5625 254.0625 84.050781 L 244.195312 92 L 243.921875 79.117188 C 243.914062 78.253906 244.007812 77.855469 244.195312 77.472656 C 244.5 76.851562 245.230469 76.816406 246.480469 77.378906 L 246.664062 76.921875 C 245.3125 76.265625 243.953125 75.828125 242.640625 75.1875 C 241.292969 74.527344 240.011719 73.667969 238.621094 72.992188 Z M 131.527344 76.285156 L 113.070312 86.519531 C 114.097656 88.644531 114.929688 90.792969 115.808594 93.003906 L 116.632812 92.640625 C 115.4375 88.890625 116.085938 87.59375 118.183594 86.425781 L 121.65625 84.507812 L 132.257812 103.695312 C 132.964844 104.972656 132.953125 105.972656 131.160156 107.261719 L 131.433594 107.71875 C 132.898438 106.90625 134.332031 105.78125 135.457031 105.160156 C 136.582031 104.535156 138.378906 103.867188 139.84375 103.058594 L 139.566406 102.601562 C 137.527344 103.4375 136.617188 102.960938 135.914062 101.6875 L 125.3125 82.496094 L 128.785156 80.578125 C 130.886719 79.414062 132.273438 79.492188 134.816406 82.496094 L 135.546875 82.132812 C 134.140625 80.210938 132.785156 78.28125 131.527344 76.285156 Z M 131.527344 76.285156 " fill-opacity="1" fill-rule="nonzero"/><path fill="#b4b5b9" d="M 208.46875 97.117188 C 224.445312 109.085938 235.152344 128.324219 240.539062 154.867188 C 245.460938 153.667969 255.398438 149.503906 258.359375 146.644531 C 258.359375 146.644531 242.019531 105.902344 208.46875 97.117188 Z M 167.347656 97.300781 C 133.792969 106.082031 117.453125 146.828125 117.453125 146.828125 C 120.414062 149.683594 130.351562 153.761719 135.273438 154.960938 C 140.660156 128.417969 151.367188 109.265625 167.347656 97.300781 Z M 233.230469 106.710938 C 249.230469 120.214844 255.28125 133.082031 261.101562 143.996094 C 262.261719 142.859375 266.304688 137.886719 264.390625 134.855469 C 257.316406 123.644531 243.574219 111.175781 233.230469 106.710938 Z M 142.582031 106.804688 C 132.238281 111.265625 118.585938 123.828125 111.515625 135.039062 C 109.601562 138.070312 113.640625 143.042969 114.804688 144.175781 C 120.625 133.265625 126.582031 120.304688 142.582031 106.804688 Z M 267.039062 138.785156 C 266.289062 144.40625 262.289062 147.648438 262.289062 147.648438 C 264.808594 154.703125 268.046875 166.191406 268.683594 173.144531 C 274.367188 169.71875 278.679688 166.003906 277.546875 162.085938 C 277.546875 162.085938 273.875 149.3125 267.039062 138.785156 Z M 108.863281 138.96875 C 102.03125 149.496094 98.265625 162.269531 98.265625 162.269531 C 97.132812 166.1875 101.53125 169.902344 107.21875 173.328125 C 107.859375 166.375 111.003906 154.796875 113.523438 147.742188 C 113.523438 147.742188 109.613281 144.589844 108.863281 138.96875 Z M 259.363281 149.933594 C 259.363281 149.933594 250.859375 155.703125 241.179688 158.066406 C 241.179688 158.066406 243.425781 168.34375 243.828125 182.191406 C 250.609375 180.558594 258.296875 178.496094 265.210938 175.152344 C 265.203125 175.132812 264.304688 161.523438 259.363281 149.933594 Z M 116.539062 150.117188 C 111.597656 161.707031 110.703125 175.222656 110.691406 175.246094 C 117.609375 178.585938 125.292969 180.652344 132.074219 182.28125 C 132.480469 168.4375 134.726562 158.25 134.726562 158.25 C 125.046875 155.882812 116.539062 150.117188 116.539062 150.117188 Z M 278.917969 166.929688 C 278.121094 170.449219 269.816406 175.957031 269.140625 176.523438 C 270.152344 186.257812 269.234375 197.085938 269.234375 197.085938 C 273.449219 194.964844 281.746094 191.867188 281.203125 183.105469 C 281.203125 183.105469 281.125 177.308594 278.917969 166.929688 Z M 96.984375 167.113281 C 94.78125 177.488281 94.703125 183.195312 94.703125 183.195312 C 94.160156 191.960938 102.453125 195.148438 106.671875 197.265625 C 106.671875 197.265625 105.753906 186.441406 106.761719 176.707031 C 106.085938 176.140625 97.78125 170.632812 96.984375 167.113281 Z M 265.488281 178.261719 C 258.429688 181.453125 250.972656 183.640625 243.921875 185.296875 C 243.921875 185.296875 244.464844 195.675781 243.007812 204.761719 C 249.101562 203.503906 259.144531 201.101562 265.210938 198.820312 C 266.367188 188.265625 265.488281 178.261719 265.488281 178.261719 Z M 110.417969 178.445312 C 110.417969 178.445312 109.539062 188.449219 110.691406 199.003906 C 116.761719 201.285156 126.714844 203.6875 132.804688 204.941406 C 131.347656 195.859375 131.984375 185.480469 131.984375 185.480469 C 124.9375 183.824219 117.476562 181.632812 110.417969 178.445312 Z M 281.386719 191.144531 C 281.382812 191.140625 278.695312 196.660156 268.957031 200.375 C 267.972656 206.921875 266.511719 216.101562 264.207031 222.488281 C 270.808594 220.476562 278.003906 213.480469 278.554688 211.523438 C 278.523438 211.554688 281.691406 199.167969 281.386719 191.144531 Z M 94.519531 191.328125 C 94.210938 199.351562 97.378906 211.648438 97.351562 211.613281 C 97.898438 213.574219 105.003906 220.660156 111.605469 222.671875 C 109.304688 216.285156 107.839844 207.011719 106.855469 200.464844 C 97.117188 196.753906 94.523438 191.324219 94.519531 191.328125 Z M 264.9375 202.019531 C 257.664062 204.675781 250 206.660156 242.734375 207.957031 C 242.734375 207.957031 241.832031 218.75 238.347656 229.523438 C 250.28125 227.566406 259.839844 224.113281 259.820312 224.042969 C 262.535156 216.839844 263.914062 209.386719 264.9375 202.019531 Z M 110.875 202.109375 C 111.898438 209.480469 113.28125 217.023438 115.992188 224.222656 C 115.972656 224.296875 125.53125 227.746094 137.464844 229.707031 C 133.984375 218.929688 133.171875 208.050781 133.171875 208.050781 C 125.90625 206.753906 118.148438 204.769531 110.875 202.109375 Z M 276.816406 217.644531 C 272.664062 221.574219 267.171875 224.375 263.019531 226.144531 C 263.011719 226.210938 259.949219 235.132812 252.328125 248.074219 C 268.859375 244.300781 275.269531 222.402344 276.816406 217.644531 Z M 99.085938 217.734375 C 100.632812 222.496094 107.042969 244.394531 123.578125 248.164062 C 115.957031 235.222656 112.800781 226.394531 112.792969 226.324219 C 108.640625 224.554688 103.238281 221.664062 99.085938 217.734375 Z M 258.542969 227.695312 C 251.449219 230.105469 244.492188 231.542969 237.433594 232.90625 C 235.320312 240.042969 232.253906 247.648438 228.296875 254.835938 C 234.300781 253.746094 240.539062 252.992188 246.207031 250.359375 C 247.382812 249.816406 247.78125 248.179688 248.582031 246.976562 C 251.503906 242.578125 254.082031 237.601562 256.257812 233.179688 C 257.082031 231.488281 257.796875 229.59375 258.542969 227.695312 Z M 117.273438 227.878906 C 118.015625 229.777344 118.730469 231.667969 119.554688 233.363281 C 121.730469 237.785156 124.3125 242.671875 127.230469 247.070312 C 128.03125 248.269531 128.523438 250 129.699219 250.539062 C 135.363281 253.175781 141.511719 253.929688 147.519531 255.019531 C 143.558594 247.832031 140.585938 240.226562 138.472656 233.085938 C 131.414062 231.722656 124.363281 230.289062 117.273438 227.878906 Z M 260.371094 247.800781 C 257.039062 249.777344 253.074219 251.4375 249.3125 252.550781 C 249.234375 252.574219 233.753906 268.601562 226.558594 273.933594 C 236.109375 269.617188 252.1875 258.042969 260.371094 247.800781 Z M 115.445312 247.890625 C 123.625 258.132812 139.703125 269.707031 149.253906 274.023438 C 142.0625 268.691406 126.667969 252.753906 126.59375 252.734375 C 122.832031 251.617188 118.773438 249.867188 115.445312 247.890625 Z M 242.640625 254.835938 C 237.28125 256.53125 231.621094 257.503906 226.195312 258.582031 C 222.011719 265.359375 215.09375 274.113281 207.554688 279.050781 C 219.210938 275.480469 232.019531 267.695312 242.640625 254.835938 Z M 133.171875 254.925781 C 143.792969 267.785156 156.695312 275.664062 168.351562 279.234375 C 160.8125 274.296875 153.890625 265.542969 149.710938 258.765625 C 144.28125 257.6875 138.535156 256.621094 133.171875 254.925781 Z M 133.171875 254.925781 " fill-opacity="1" fill-rule="nonzero"/><path fill="#231f20" d="M 270.148438 248.804688 C 269.472656 249.605469 269.1875 250.308594 268.683594 250.90625 C 268.015625 251.707031 266.945312 252.632812 266.398438 253.28125 L 266.765625 253.554688 C 267.53125 252.75 267.988281 252.558594 268.410156 252.917969 C 268.613281 253.085938 268.886719 253.226562 269.140625 253.738281 L 273.164062 262.601562 L 263.660156 260.410156 C 263.019531 260.257812 262.71875 260.074219 262.472656 259.863281 C 262.070312 259.523438 262.191406 259.039062 262.835938 258.214844 L 262.472656 257.941406 C 261.738281 258.816406 261.171875 259.746094 260.460938 260.59375 C 259.726562 261.46875 258.839844 262.25 258.085938 263.152344 L 258.449219 263.425781 C 259.355469 262.648438 260.039062 262.667969 261.101562 262.875 L 273.164062 265.34375 L 277.640625 269.089844 C 278.492188 269.804688 278.652344 270.433594 277.730469 271.832031 L 278.097656 272.199219 C 278.914062 271.222656 279.65625 269.933594 280.289062 269.183594 C 280.917969 268.433594 282.03125 267.507812 282.847656 266.53125 L 282.484375 266.257812 C 281.261719 267.410156 280.5 267.335938 279.648438 266.625 L 275.171875 262.875 L 270.605469 252.367188 C 269.90625 250.761719 269.761719 250.070312 270.511719 249.078125 Z M 105.941406 249.535156 L 105.667969 249.808594 C 106.425781 250.921875 106.402344 251.167969 105.300781 252.09375 L 96.253906 259.769531 C 92.375 263.023438 92.402344 266.726562 95.613281 270.550781 C 98.847656 274.40625 102.609375 275.175781 106.488281 271.921875 L 115.535156 264.246094 C 116.636719 263.324219 116.859375 263.394531 117.820312 264.339844 L 118.183594 264.066406 C 117.535156 263.289062 116.742188 262.640625 116.175781 261.964844 C 115.105469 260.6875 114.542969 259.8125 113.890625 259.039062 L 113.523438 259.3125 C 113.960938 259.886719 114.605469 260.933594 113.707031 261.6875 L 103.929688 269.820312 C 101.28125 272.046875 98.617188 271.597656 96.894531 269.546875 C 95.195312 267.519531 95.15625 264.828125 97.808594 262.601562 L 107.585938 254.378906 C 108.488281 253.621094 109.382812 254.398438 109.871094 254.925781 L 110.234375 254.652344 C 109.585938 253.878906 108.746094 253.1875 107.675781 251.910156 C 107.109375 251.234375 106.589844 250.3125 105.941406 249.535156 Z M 256.714844 264.15625 L 244.195312 274.300781 C 245.25 275.757812 246.257812 277.238281 247.210938 278.777344 L 247.667969 278.410156 C 246.273438 275.757812 246.613281 274.71875 248.035156 273.566406 L 250.410156 271.648438 L 260.917969 284.625 C 261.617188 285.488281 261.722656 286.257812 260.550781 287.457031 L 260.828125 287.824219 C 261.816406 287.023438 262.714844 285.96875 263.476562 285.355469 C 264.238281 284.738281 265.5 283.96875 266.492188 283.164062 L 266.21875 282.796875 C 264.800781 283.691406 264.085938 283.476562 263.386719 282.613281 L 252.875 269.640625 L 255.253906 267.8125 C 256.675781 266.660156 257.699219 266.535156 260.003906 268.449219 L 260.550781 267.992188 C 259.242188 266.742188 257.925781 265.492188 256.714844 264.15625 Z M 121.292969 266.988281 L 121.019531 267.445312 C 121.949219 268.335938 122.09375 268.707031 121.566406 269.457031 L 111.605469 283.800781 C 111.078125 284.550781 110.570312 284.554688 109.414062 283.984375 L 109.230469 284.351562 C 110.113281 284.96875 111.089844 285.378906 111.972656 285.996094 C 112.722656 286.519531 113.324219 287.207031 114.074219 287.730469 L 114.347656 287.367188 C 113.070312 286.113281 112.910156 285.414062 114.164062 283.621094 L 122.296875 272.105469 L 122.664062 293.761719 L 124.214844 294.859375 L 135.273438 279.050781 C 135.796875 278.300781 136.3125 278.296875 137.464844 278.867188 L 137.742188 278.503906 C 136.855469 277.882812 135.878906 277.476562 135 276.859375 C 134.25 276.332031 133.554688 275.644531 132.804688 275.121094 L 132.53125 275.488281 C 133.808594 276.742188 133.96875 277.4375 132.714844 279.234375 L 125.953125 288.917969 L 125.859375 288.917969 L 125.585938 270.003906 C 124.917969 269.535156 124.210938 269.324219 123.484375 268.816406 C 122.734375 268.292969 122.042969 267.511719 121.292969 266.988281 Z M 240.265625 276.21875 C 239.65625 276.527344 238.542969 277.300781 237.433594 277.863281 C 236.324219 278.425781 235.027344 278.921875 234.417969 279.234375 L 234.601562 279.597656 C 235.824219 279.195312 236.285156 279.242188 236.703125 280.054688 L 244.652344 295.589844 C 245.066406 296.40625 244.875 296.847656 243.828125 297.601562 L 244.011719 297.964844 C 244.625 297.65625 245.738281 296.882812 246.84375 296.320312 C 247.949219 295.753906 249.25 295.351562 249.859375 295.042969 L 249.585938 294.675781 C 248.363281 295.082031 247.902344 294.941406 247.484375 294.128906 L 239.625 278.59375 C 239.210938 277.777344 239.402344 277.429688 240.449219 276.675781 Z M 142.859375 280.695312 L 142.675781 281.152344 C 143.761719 281.847656 144.054688 282.234375 143.679688 283.070312 L 136.550781 298.972656 C 136.179688 299.808594 135.695312 299.855469 134.449219 299.519531 L 134.269531 299.976562 C 134.894531 300.253906 136.242188 300.566406 137.375 301.074219 C 138.507812 301.582031 139.671875 302.347656 140.300781 302.625 L 140.480469 302.167969 C 139.398438 301.472656 139.105469 301.085938 139.476562 300.25 L 146.605469 284.351562 C 146.976562 283.515625 147.464844 283.460938 148.707031 283.800781 L 148.886719 283.34375 C 148.261719 283.066406 146.914062 282.660156 145.78125 282.15625 C 144.644531 281.652344 143.484375 280.976562 142.859375 280.695312 Z M 228.203125 282.707031 C 226.78125 282.769531 224.972656 283.195312 224 283.527344 C 219.027344 285.238281 216.734375 288.96875 217.789062 292.027344 C 219.085938 295.792969 222.257812 295.820312 227.929688 295.042969 C 230.210938 294.738281 231.925781 294.671875 232.773438 297.144531 C 233.71875 299.890625 231.550781 302.035156 229.300781 302.808594 C 226.273438 303.851562 223.476562 303.050781 221.714844 300.339844 L 221.078125 300.523438 C 221.753906 302.089844 222.347656 303.671875 222.90625 305.277344 C 225.035156 305.75 227.113281 305.476562 229.027344 304.820312 C 234.769531 302.839844 236.328125 299.019531 235.148438 295.589844 C 233.734375 291.480469 230.59375 291.746094 226.46875 292.300781 C 222.402344 292.835938 221.019531 292.878906 220.253906 290.65625 C 219.585938 288.710938 220.757812 286.59375 224.09375 285.445312 C 226.257812 284.703125 229.132812 284.734375 230.488281 287.273438 L 231.039062 287 C 230.457031 285.617188 229.945312 284.226562 229.484375 282.796875 C 229.148438 282.722656 228.679688 282.683594 228.203125 282.707031 Z M 150.808594 284.714844 L 150.714844 285.171875 C 152.121094 285.628906 152.238281 286.234375 152.359375 287 L 155.011719 307.378906 L 157.113281 307.835938 L 167.621094 290.839844 C 168.160156 289.957031 168.859375 289.449219 169.90625 289.558594 L 170.089844 289.195312 C 169.292969 289.011719 168.417969 289.015625 167.621094 288.828125 C 166.667969 288.609375 165.742188 288.136719 164.789062 287.914062 L 164.695312 288.371094 C 165.304688 288.644531 166.121094 289.015625 165.976562 289.652344 C 165.886719 290.03125 165.59375 290.652344 165.152344 291.386719 L 157.386719 303.996094 L 157.296875 303.996094 L 155.46875 288.644531 C 155.421875 288.265625 155.382812 287.535156 155.46875 287.183594 C 155.605469 286.582031 156.078125 286.386719 157.296875 286.636719 L 157.386719 286.269531 C 156.433594 286.050781 155.480469 286.023438 154.554688 285.8125 C 153.28125 285.515625 152.078125 285.011719 150.808594 284.714844 Z M 206.183594 288.917969 C 205.71875 288.925781 205.164062 288.925781 204.628906 289.011719 L 195.308594 290.472656 L 195.398438 290.929688 C 196.691406 290.921875 197.085938 291.125 197.226562 292.027344 L 199.96875 309.113281 C 200.109375 310.015625 199.730469 310.273438 198.507812 310.667969 L 198.597656 311.125 C 199.277344 311.015625 200.570312 310.585938 201.796875 310.394531 C 203.023438 310.199219 204.316406 310.226562 204.996094 310.121094 L 204.996094 309.664062 C 203.703125 309.667969 203.21875 309.46875 203.074219 308.566406 L 200.425781 291.570312 L 202.160156 291.296875 C 204.871094 290.863281 207.710938 290.882812 208.191406 293.945312 C 208.640625 296.785156 206.429688 298.53125 203.074219 299.0625 C 202.820312 299.101562 202.496094 299.234375 202.527344 299.429688 C 202.546875 299.554688 202.878906 299.886719 203.351562 300.339844 L 208.375 305.183594 C 211.566406 308.414062 212.027344 308.890625 212.394531 308.929688 C 213.199219 308.804688 213.929688 308.515625 214.773438 308.382812 C 215.320312 308.296875 215.925781 308.382812 216.507812 308.292969 L 216.417969 307.835938 C 215.460938 307.890625 214.5625 307.265625 213.402344 306.191406 L 206.273438 299.429688 C 209.328125 298.679688 211.730469 296.320312 211.207031 293.03125 C 210.835938 290.6875 209.421875 288.878906 206.183594 288.917969 Z M 173.105469 289.742188 L 173.105469 290.199219 C 174.363281 290.460938 174.796875 290.746094 174.75 291.660156 L 173.835938 308.75 C 173.789062 309.664062 173.382812 309.898438 172.097656 310.027344 L 172.097656 310.484375 L 188.636719 311.308594 C 188.761719 309.515625 189.019531 307.792969 189.277344 306.007812 L 188.636719 305.914062 C 187.894531 308.855469 186.628906 309.347656 183.886719 309.207031 L 177.03125 308.929688 L 177.398438 300.707031 L 182.058594 300.890625 C 183.230469 300.953125 183.933594 301.09375 184.070312 302.898438 L 184.707031 302.898438 C 184.660156 301.945312 184.566406 301.078125 184.617188 300.066406 C 184.667969 299.121094 184.835938 298.265625 184.984375 297.328125 L 184.34375 297.328125 C 184.019531 299.105469 183.324219 299.121094 182.148438 299.0625 L 177.582031 298.878906 L 177.945312 291.84375 L 185.347656 292.210938 C 186.785156 292.28125 187.929688 292.777344 188.179688 295.40625 L 188.820312 295.40625 C 188.773438 293.804688 188.738281 292.160156 188.820312 290.5625 Z M 173.105469 289.742188 " fill-opacity="1" fill-rule="nonzero"/><path fill="#231f20" d="M 167.253906 153.316406 C 156.5625 154.707031 154.75 157.605469 155.832031 160.441406 C 159.394531 168.136719 162.234375 173.722656 165.335938 179.175781 C 167.273438 182.578125 182.679688 183.105469 190.101562 183.105469 C 195.746094 183.105469 203.195312 182.121094 205.726562 179.449219 C 206.644531 178.273438 205.085938 177.960938 204.8125 178.167969 C 201.574219 180.621094 193.613281 181.671875 185.441406 181.367188 C 178.257812 180.917969 177.097656 170.109375 186.992188 170.492188 C 205.640625 170.800781 216.65625 165.277344 217.054688 160.441406 C 217.191406 158.84375 216.414062 158.101562 215.320312 156.96875 C 214.847656 156.480469 212.78125 155.230469 212.03125 155.234375 C 211.664062 155.234375 211.527344 155.3125 211.664062 155.417969 C 224.417969 163.648438 197.585938 166.964844 190.101562 167.386719 C 172.980469 168.347656 143.335938 160.886719 167.253906 153.316406 Z M 160.585938 176.066406 C 156.445312 176.007812 155.742188 179.996094 155.742188 179.996094 C 155.742188 180.160156 155.867188 186.976562 155.925781 189.957031 C 155.941406 190.816406 155.925781 191.355469 155.925781 191.328125 C 161.785156 205.117188 217.953125 201.433594 213.128906 191.601562 C 213.128906 191.601562 212.417969 192.988281 212.304688 192.882812 C 211.097656 196.109375 199.570312 198.640625 185.988281 198.546875 C 178.734375 198.675781 176.125 192.160156 180.324219 189.957031 C 181.285156 189.453125 182.636719 189.144531 184.34375 189.226562 C 197.964844 190.257812 218.65625 186.546875 213.308594 178.261719 C 213.308594 178.261719 213.148438 179.996094 213.035156 179.996094 C 211.808594 185.128906 199.46875 187.058594 185.988281 187.035156 C 168.671875 186.996094 151.214844 182.976562 160.585938 176.066406 Z M 163.601562 199.003906 C 163.71875 199.941406 164.472656 205.578125 165.519531 213.441406 C 168.304688 234.582031 171.101562 255.722656 173.925781 276.859375 C 175.242188 283.710938 197.242188 283.972656 198.507812 276.492188 C 198.507812 276.492188 196.386719 276.632812 196.3125 276.582031 C 194.609375 278.394531 189.558594 279.304688 185.988281 278.777344 L 185.164062 213.441406 L 185.074219 201.746094 C 185.074219 201.96875 174.089844 202.800781 163.601562 199.003906 Z M 171.277344 207.046875 C 171.242188 209.1875 171.285156 211.289062 171.277344 213.441406 C 171.277344 213.933594 171.277344 214.5 171.277344 214.996094 C 171.277344 215.414062 171.394531 215.632812 171.914062 215.632812 L 171.914062 216.183594 C 171.136719 216.140625 170.410156 216.089844 169.632812 216.089844 C 168.933594 216.089844 168.191406 216.140625 167.53125 216.183594 L 167.53125 215.632812 C 168 215.632812 168.351562 215.519531 168.351562 214.996094 L 168.351562 209.238281 C 168.351562 208.660156 167.980469 208.507812 167.4375 208.507812 L 167.4375 207.957031 C 168.785156 207.796875 170.023438 207.542969 171.277344 207.046875 Z M 180.046875 207.226562 C 181.515625 207.226562 183.15625 207.808594 183.15625 209.421875 C 183.15625 210.429688 182.527344 210.832031 181.691406 211.25 C 182.6875 211.652344 183.632812 212.3125 183.703125 213.441406 C 183.707031 213.484375 183.703125 213.578125 183.703125 213.625 C 183.703125 215.496094 181.828125 216.367188 179.867188 216.367188 C 177.875 216.367188 176.300781 215.460938 176.300781 213.808594 C 176.300781 213.695312 176.289062 213.546875 176.300781 213.441406 C 176.441406 212.5 177.207031 212.023438 178.128906 211.707031 C 177.269531 211.167969 176.667969 210.691406 176.667969 209.605469 C 176.667969 208.09375 178.207031 207.226562 180.046875 207.226562 Z M 190.28125 207.226562 C 188.441406 207.226562 186.902344 208.09375 186.902344 209.605469 C 186.902344 210.691406 187.5 211.167969 188.363281 211.707031 C 187.441406 212.023438 186.675781 212.5 186.535156 213.441406 C 186.519531 213.546875 186.535156 213.695312 186.535156 213.808594 C 186.535156 215.460938 188.109375 216.367188 190.101562 216.367188 C 192.0625 216.367188 193.9375 215.496094 193.9375 213.625 C 193.9375 213.578125 193.941406 213.484375 193.9375 213.441406 C 193.871094 212.3125 192.921875 211.652344 191.925781 211.25 C 192.761719 210.832031 193.390625 210.429688 193.390625 209.421875 C 193.390625 207.808594 191.75 207.226562 190.28125 207.226562 Z M 197.59375 207.5 C 197.5 208.414062 197.324219 209.902344 197.136719 210.792969 L 197.683594 210.792969 C 198.007812 209.792969 198.214844 209.695312 199.238281 209.695312 L 202.160156 209.695312 C 200.703125 210.609375 199.675781 211.898438 199.054688 213.441406 C 198.726562 214.265625 198.507812 215.203125 198.414062 216.089844 L 201.613281 216.089844 C 201.660156 215.199219 201.867188 214.273438 202.070312 213.441406 C 202.652344 211.082031 203.667969 209.011719 204.355469 207.5 Z M 180.046875 208.691406 C 179.578125 208.691406 179.316406 209.015625 179.316406 209.421875 C 179.316406 209.878906 179.851562 210.300781 180.230469 210.515625 C 180.578125 210.179688 180.78125 209.945312 180.78125 209.421875 C 180.78125 208.921875 180.449219 208.691406 180.046875 208.691406 Z M 190.375 208.691406 C 190.777344 208.691406 191.011719 208.921875 191.011719 209.421875 C 191.011719 209.945312 190.816406 210.179688 190.464844 210.515625 C 190.089844 210.300781 189.550781 209.878906 189.550781 209.421875 C 189.550781 209.015625 189.902344 208.691406 190.375 208.691406 Z M 179.957031 212.527344 C 179.660156 212.675781 179.285156 212.992188 179.132812 213.441406 C 179.078125 213.605469 179.042969 213.789062 179.042969 213.988281 C 179.042969 214.59375 179.417969 214.902344 179.957031 214.902344 C 180.507812 214.902344 180.871094 214.542969 180.871094 213.988281 C 180.871094 213.816406 180.84375 213.605469 180.78125 213.441406 C 180.609375 213.03125 180.316406 212.675781 179.957031 212.527344 Z M 190.191406 212.527344 C 190.546875 212.675781 190.84375 213.03125 191.011719 213.441406 C 191.078125 213.605469 191.105469 213.816406 191.105469 213.988281 C 191.105469 214.542969 190.742188 214.902344 190.191406 214.902344 C 189.652344 214.902344 189.277344 214.59375 189.277344 213.988281 C 189.277344 213.789062 189.3125 213.605469 189.367188 213.441406 C 189.515625 212.992188 189.894531 212.675781 190.191406 212.527344 Z M 190.191406 212.527344 " fill-opacity="1" fill-rule="evenodd"/></svg>